<svg width="22" height="23" viewBox="0 0 22 23" fill="none" xmlns="http://www.w3.org/2000/svg">
<path d="M11 0C4.92077 0 0 4.95343 0 11.0752C0 17.196 4.91979 22.1504 11 22.1504C13.1359 22.1504 15.2289 21.5189 17.006 20.3541C17.5385 20.0051 17.6547 19.2695 17.2523 18.7745L16.8009 18.2192C16.4606 17.8007 15.8615 17.6982 15.4093 17.9902C14.1013 18.8348 12.5663 19.2923 11 19.2923C6.49985 19.2923 2.83871 15.6061 2.83871 11.0752C2.83871 6.54428 6.49985 2.85811 11 2.85811C15.4416 2.85811 19.1613 5.43127 19.1613 10.0034C19.1613 11.7355 18.2257 13.5645 16.5812 13.741C15.8117 13.7207 15.8311 13.1668 15.9834 12.4002L17.0228 6.99162C17.1499 6.33028 16.6467 5.71623 15.9777 5.71623H13.9826C13.8353 5.71623 13.6931 5.77082 13.5832 5.86961C13.4734 5.96839 13.4034 6.10444 13.3868 6.25181L13.3864 6.25592C12.7345 5.4565 11.5923 5.28349 10.7264 5.28349C7.41839 5.28349 4.6129 8.06274 4.6129 12.0474C4.6129 14.9637 6.2445 16.7753 8.87097 16.7753C10.0678 16.7753 11.4156 16.077 12.1972 15.0635C12.6195 16.5865 13.9986 16.5864 15.3335 16.5864C20.1641 16.5864 22 13.3884 22 10.0034C22 3.91441 17.122 0 11 0ZM10.0384 13.5952C9.05154 13.5952 8.43851 12.8976 8.43851 11.7745C8.43851 9.7652 9.80371 8.52656 11.039 8.52656C12.0278 8.52656 12.6181 9.20719 12.6181 10.3473C12.6181 12.3596 11.1156 13.5952 10.0384 13.5952Z" fill="#610A0B"/>
</svg>
