<svg width="19" height="22" viewBox="0 0 19 22" fill="none" xmlns="http://www.w3.org/2000/svg">
<g clip-path="url(#clip0_58_76)">
<path d="M9.50424 6.05855C6.80692 6.05855 4.63125 8.26284 4.63125 10.9957C4.63125 13.7285 6.80692 15.9328 9.50424 15.9328C12.2016 15.9328 14.3772 13.7285 14.3772 10.9957C14.3772 8.26284 12.2016 6.05855 9.50424 6.05855ZM9.50424 14.2054C7.76116 14.2054 6.33616 12.766 6.33616 10.9957C6.33616 9.22534 7.75692 7.78589 9.50424 7.78589C11.2516 7.78589 12.6723 9.22534 12.6723 10.9957C12.6723 12.766 11.2473 14.2054 9.50424 14.2054ZM15.7132 5.85659C15.7132 6.49683 15.2042 7.00816 14.5766 7.00816C13.9446 7.00816 13.4399 6.49253 13.4399 5.85659C13.4399 5.22065 13.9489 4.70503 14.5766 4.70503C15.2042 4.70503 15.7132 5.22065 15.7132 5.85659ZM18.9406 7.02534C18.8685 5.48276 18.5208 4.11636 17.4053 2.99058C16.2942 1.86479 14.9455 1.51245 13.423 1.43511C11.8538 1.34487 7.15045 1.34487 5.58125 1.43511C4.06295 1.50815 2.71429 1.8605 1.59889 2.98628C0.483489 4.11206 0.139962 5.47847 0.063623 7.02105C-0.0254394 8.61089 -0.0254394 13.3761 0.063623 14.966C0.135721 16.5085 0.483489 17.875 1.59889 19.0007C2.71429 20.1265 4.05871 20.4789 5.58125 20.5562C7.15045 20.6464 11.8538 20.6464 13.423 20.5562C14.9455 20.4832 16.2942 20.1308 17.4053 19.0007C18.5165 17.875 18.8643 16.5085 18.9406 14.966C19.0297 13.3761 19.0297 8.61519 18.9406 7.02534ZM16.9134 16.6718C16.5826 17.514 15.9422 18.1628 15.1067 18.5023C13.8556 19.005 10.8868 18.889 9.50424 18.889C8.12165 18.889 5.14866 19.0007 3.90179 18.5023C3.07054 18.1671 2.43014 17.5183 2.09509 16.6718C1.59889 15.4042 1.7134 12.3964 1.7134 10.9957C1.7134 9.59487 1.60313 6.58276 2.09509 5.31948C2.4259 4.4773 3.0663 3.82847 3.90179 3.48901C5.1529 2.98628 8.12165 3.10229 9.50424 3.10229C10.8868 3.10229 13.8598 2.99058 15.1067 3.48901C15.9379 3.82417 16.5783 4.473 16.9134 5.31948C17.4096 6.58706 17.2951 9.59487 17.2951 10.9957C17.2951 12.3964 17.4096 15.4085 16.9134 16.6718Z" fill="#610A0B"/>
</g>
<defs>
<clipPath id="clip0_58_76">
<rect width="19" height="22" fill="white"/>
</clipPath>
</defs>
</svg>
