<svg width="31" height="44" viewBox="0 0 31 44" fill="none" xmlns="http://www.w3.org/2000/svg">
<path d="M28.9236 18.4654L30.4995 20.6052C31.1668 21.5113 31.1668 22.9765 30.4995 23.8729L16.7068 42.6113C16.0395 43.5173 14.9605 43.5173 14.3003 42.6113L0.500458 23.8729C-0.166819 22.9668 -0.166819 21.5017 0.500458 20.6052L2.07637 18.4654C2.75074 17.5497 3.85104 17.5689 4.51122 18.5039L12.6605 30.119V2.41629C12.6605 1.13429 13.4201 0.102905 14.3642 0.102905H16.6358C17.5799 0.102905 18.3395 1.13429 18.3395 2.41629V30.119L26.4888 18.5039C27.149 17.5593 28.2493 17.54 28.9236 18.4654Z" fill="#D0D0D0" fill-opacity="0.85"/>
</svg>
