<svg width="22" height="22" viewBox="0 0 22 22" fill="none" xmlns="http://www.w3.org/2000/svg">
<path d="M18.7049 3.79727C16.6473 1.99258 13.9071 1 10.9951 1C4.98437 1 0.0933036 5.27969 0.0933036 10.5391C0.0933036 12.2191 0.594196 13.8605 1.54688 15.3086L0 20.25L5.77991 18.9223C7.37098 19.6828 9.16339 20.0824 10.9902 20.0824H10.9951C17.0009 20.0824 22 15.8027 22 10.5434C22 7.99531 20.7625 5.60195 18.7049 3.79727ZM10.9951 18.4754C9.36473 18.4754 7.76875 18.093 6.37902 17.3711L6.05 17.1992L2.62232 17.9855L3.53571 15.0594L3.31964 14.7586C2.41116 13.4953 1.93482 12.0387 1.93482 10.5391C1.93482 6.16914 6.00089 2.61133 11 2.61133C13.421 2.61133 15.6946 3.43633 17.4036 4.93594C19.1125 6.43555 20.1634 8.425 20.1585 10.5434C20.1585 14.9176 15.9893 18.4754 10.9951 18.4754ZM15.9647 12.5371C15.6946 12.4168 14.354 11.841 14.1036 11.7637C13.8531 11.682 13.6714 11.6434 13.4897 11.884C13.308 12.1246 12.7875 12.6574 12.6254 12.8207C12.4683 12.9797 12.3062 13.0012 12.0362 12.8809C10.4353 12.1805 9.38438 11.6305 8.32857 10.0449C8.04866 9.62383 8.60848 9.65391 9.12902 8.74297C9.21741 8.58398 9.17321 8.44648 9.10446 8.32617C9.03571 8.20586 8.49063 7.03281 8.26473 6.55586C8.04375 6.0918 7.81786 6.15625 7.65089 6.14766C7.49375 6.13906 7.31205 6.13906 7.13036 6.13906C6.94866 6.13906 6.65402 6.19922 6.40357 6.43555C6.15312 6.67617 5.45089 7.25195 5.45089 8.425C5.45089 9.59805 6.42813 10.7324 6.56071 10.8914C6.69821 11.0504 8.4808 13.4566 11.2161 14.4922C12.9446 15.1453 13.6223 15.2012 14.4866 15.0895C15.0121 15.0207 16.0973 14.5137 16.3232 13.9551C16.5491 13.3965 16.5491 12.9195 16.4804 12.8207C16.4165 12.7133 16.2348 12.6531 15.9647 12.5371Z" fill="#610A0B"/>
</svg>
